<?xml version="1.0" encoding="UTF-8"?>
<!-- Uploaded to: SVG Repo, www.svgrepo.com, Generator: SVG Repo Mixer Tools -->
<svg width="800px" height="800px" viewBox="0 0 20 20" version="1.1" xmlns="http://www.w3.org/2000/svg" xmlns:xlink="http://www.w3.org/1999/xlink">
    <title>content / 17 - content, folder, data, file, cloud, storage icon</title>
    <g id="Free-Icons" stroke="none" stroke-width="1" fill="none" fill-rule="evenodd">
        <g transform="translate(-155.000000, -304.000000)" id="Group">
            <g transform="translate(153.000000, 302.000000)" id="Shape">
                <path d="M9.06,17 L15.755,17 C16.6082799,17 17.3,16.3284271 17.3,15.5 C17.3,14.6715729 16.6082799,14 15.755,14 L15.24,14 C14.7646154,12 13.7346154,11 12.15,11 C9.77307692,11 9.11836437,13 9.06,13 C7.92229342,13 7,13.8954305 7,15 C7,16.1045695 7.92229342,17 9.06,17 Z" fill="#000000">
</path>
                <path d="M19,21 L5,21 C3.8954305,21 3,20.1045695 3,19 L3,4 C3,3.44771525 3.44771525,3 4,3 L9.49521718,3 C9.81266353,3 10.1112539,3.1507233 10.2997765,3.40612773 L12.7002235,6.65817724 C12.8887461,6.91358167 13.1873365,7.06430498 13.5047828,7.06430498 L20,7.06430498 C20.5522847,7.06430498 21,7.51202023 21,8.06430498 L21,19 C21,20.1045695 20.1045695,21 19,21 Z" stroke="#000000" stroke-width="2" stroke-linecap="round" stroke-linejoin="round">
</path>
            </g>
        </g>
    </g>
</svg>